# xmcd
#
# Track frame offsets:
#	150
#	12075
#	25801
#	36592
#	47501
#	61481
#	73834
#	89844
#	105390
#	117330
#
# Disc length: 1707 seconds
#
# Revision: 1
# Processed by: cddbd v1.5.1PL0 Copyright (c) Steve Scherf et al.
# Submitted via: audiograbber 1.83.01
#
DISCID=8706a90a
DTITLE=Echo Valley - Wolf River
DYEAR=1900
DGENRE=Bluegrass
TTITLE0=Wolf River
TTITLE1=Don't Let Me Cross Over
TTITLE2=Who Will Sing
TTITLE3=Down Deep
TTITLE4=Looking For Someone Like You
TTITLE5=Little Cecil
TTITLE6=Lonesome River
TTITLE7=Go Rest High On That Mountain
TTITLE8=Blackjack
TTITLE9=These Blues
EXTD=
EXTT0=
EXTT1=
EXTT2=
EXTT3=
EXTT4=
EXTT5=
EXTT6=
EXTT7=
EXTT8=
EXTT9=
PLAYORDER=
